/vscmnt/brussel_pixiu_data/_data_brussel/112/vsc11236/PredSimResults/SUBJ06_Falisse2022/weighted/worker_03.mot
version=1
nRows=4
nColumns=124
inDegrees=yes
endheader
                time	         pelvis_tilt	         pelvis_list	     pelvis_rotation	           pelvis_tx	           pelvis_ty	           pelvis_tz	       hip_flexion_r	     hip_adduction_r	      hip_rotation_r	        knee_angle_r	       ankle_angle_r	    subtalar_angle_r	         mtp_angle_r	       hip_flexion_l	     hip_adduction_l	      hip_rotation_l	        knee_angle_l	       ankle_angle_l	    subtalar_angle_l	         mtp_angle_l	    lumbar_extension	      lumbar_bending	     lumbar_rotation	          arm_flex_r	           arm_add_r	           arm_rot_r	        elbow_flex_r	          arm_flex_l	           arm_add_l	           arm_rot_l	        elbow_flex_l	glut_med1_r/activation	glut_med2_r/activation	glut_med3_r/activation	glut_min1_r/activation	glut_min2_r/activation	glut_min3_r/activation	semimem_r/activation	semiten_r/activation	bifemlh_r/activation	bifemsh_r/activation	    sar_r/activation	add_long_r/activation	add_brev_r/activation	add_mag1_r/activation	add_mag2_r/activation	add_mag3_r/activation	    tfl_r/activation	   pect_r/activation	   grac_r/activation	glut_max1_r/activation	glut_max2_r/activation	glut_max3_r/activation	iliacus_r/activation	  psoas_r/activation	quad_fem_r/activation	    gem_r/activation	   peri_r/activation	rect_fem_r/activation	vas_med_r/activation	vas_int_r/activation	vas_lat_r/activation	med_gas_r/activation	lat_gas_r/activation	 soleus_r/activation	tib_post_r/activation	flex_dig_r/activation	flex_hal_r/activation	tib_ant_r/activation	per_brev_r/activation	per_long_r/activation	per_tert_r/activation	ext_dig_r/activation	ext_hal_r/activation	glut_med1_l/activation	glut_med2_l/activation	glut_med3_l/activation	glut_min1_l/activation	glut_min2_l/activation	glut_min3_l/activation	semimem_l/activation	semiten_l/activation	bifemlh_l/activation	bifemsh_l/activation	    sar_l/activation	add_long_l/activation	add_brev_l/activation	add_mag1_l/activation	add_mag2_l/activation	add_mag3_l/activation	    tfl_l/activation	   pect_l/activation	   grac_l/activation	glut_max1_l/activation	glut_max2_l/activation	glut_max3_l/activation	iliacus_l/activation	  psoas_l/activation	quad_fem_l/activation	    gem_l/activation	   peri_l/activation	rect_fem_l/activation	vas_med_l/activation	vas_int_l/activation	vas_lat_l/activation	med_gas_l/activation	lat_gas_l/activation	 soleus_l/activation	tib_post_l/activation	flex_dig_l/activation	flex_hal_l/activation	tib_ant_l/activation	per_brev_l/activation	per_long_l/activation	per_tert_l/activation	ext_dig_l/activation	ext_hal_l/activation	 ercspn_r/activation	 ercspn_l/activation	 intobl_r/activation	 intobl_l/activation	 extobl_r/activation	 extobl_l/activation	
          0.62499634	        -10.44505105	          3.55278596	         -3.18824699	          0.69999590	          0.92507870	          0.00657420	         -9.19920373	         -0.72699735	         11.15558160	         -5.20193348	          6.00501190	         -5.12378619	         31.63656749	         34.01382341	          4.39283126	          1.41777620	         -3.81155917	         10.91875391	         -8.74337119	          0.20190895	          2.51381444	         -2.35493958	          2.10654448	          3.82350311	        -13.47342903	         19.31592999	         71.12815977	         -8.04866209	        -13.45195799	         19.30517838	         19.58954097	          0.14415461	          0.14495965	          0.14109190	          0.16580375	          0.20455694	          0.19018871	          0.01000896	          0.01000094	          0.01000071	          0.05026895	          0.10907351	          0.01000048	          0.01000285	          0.01208727	          0.01207787	          0.01000270	          0.25508528	          0.01000325	          0.02704605	          0.03675325	          0.02577868	          0.02575129	          0.31880750	          0.43183791	          0.03760953	          0.03113754	          0.18156919	          0.11029623	          0.01208344	          0.01208347	          0.01208346	          0.33935558	          0.45048531	          0.37473042	          0.33437314	          0.36121227	          0.35504250	          0.01208480	          0.01000052	          0.01055120	          0.01000035	          0.01000007	          0.01000031	          0.01000003	          0.01000005	          0.01000016	          0.01000012	          0.01000011	          0.01000015	          0.19375311	          0.03326568	          0.02959168	          0.01090982	          0.01522918	          0.05492496	          0.19976413	          0.20804001	          0.11358420	          0.04270929	          0.01000063	          0.02131723	          0.10997583	          0.01000550	          0.01000032	          0.03507712	          0.02011258	          0.01848922	          0.26883865	          0.03843068	          0.04043409	          0.01764344	          0.05666586	          0.05680896	          0.05141472	          0.01000079	          0.01000029	          0.01248021	          0.02557473	          0.01766562	          0.01987227	          0.33989689	          0.22083212	          0.18149862	          0.09994355	          0.40960043	          0.04441526	          0.02759625	          0.05541514	          0.01460073	          0.02919462	          0.01000004	          0.05328057	
          0.63749626	        -10.42746915	          3.86065331	         -3.42220297	          0.71738645	          0.92352394	          0.00638015	         -9.15022255	         -0.98593076	         10.60636375	         -7.25502207	          5.81964049	         -4.59219479	         33.43762929	         33.16761718	          4.80631096	          1.76709649	         -4.05820345	          9.95240375	         -9.23556587	          0.17585388	          2.68967195	         -2.82887198	          2.15526409	          3.14094928	        -13.48798490	         19.27036996	         73.32447016	         -8.76366175	        -13.46907368	         19.24865477	         18.59892910	          0.22124228	          0.11996675	          0.11676584	          0.13721888	          0.16928879	          0.15739776	          0.01001191	          0.01009933	          0.01208248	          0.04160196	          0.09026792	          0.06311683	          0.01000095	          0.01000393	          0.01000421	          0.01000102	          0.21110537	          0.01003401	          0.02238353	          0.03041681	          0.02133433	          0.02131158	          0.26384100	          0.35738350	          0.03112520	          0.02576919	          0.15026433	          0.09127974	          0.01000046	          0.01000046	          0.01000038	          0.28084630	          0.37484078	          0.36111319	          0.31705307	          0.33823619	          0.33846447	          0.01000125	          0.01000014	          0.01000007	          0.01000026	          0.01000010	          0.01000066	          0.14680380	          0.01000179	          0.01000052	          0.03814662	          0.01000897	          0.23562365	          0.16331445	          0.02753052	          0.03780463	          0.01000032	          0.01260395	          0.04545526	          0.16532224	          0.17217128	          0.09400093	          0.03534699	          0.01000105	          0.01764300	          0.09101486	          0.12506323	          0.01000232	          0.03268241	          0.01664494	          0.01530147	          0.27392138	          0.08454126	          0.26559752	          0.01460151	          0.04689604	          0.04701447	          0.04255024	          0.01764257	          0.01764253	          0.01568811	          0.02116533	          0.01461991	          0.01644610	          0.39756964	          0.23234765	          0.15020602	          0.19607877	          0.50298751	          0.03675753	          0.03820023	          0.04586087	          0.01208338	          0.03112591	          0.01000032	          0.04409432	
          0.64999619	        -10.40647339	          4.16137871	         -3.63433656	          0.73492413	          0.92208253	          0.00614549	         -8.97925825	         -1.24131549	         10.03938532	         -9.52574893	          5.50727356	         -4.06238470	         35.14274509	         32.23334891	          5.18704273	          2.11913464	         -4.19546862	          9.03847124	         -9.72927350	          0.17770220	          2.87190269	         -3.29961410	          2.19399993	          2.40762105	        -13.50076498	         19.21747108	         75.39999597	         -9.48439402	        -13.49064038	         19.19978910	         17.73912809	          0.20175947	          0.09928295	          0.09663391	          0.14870413	          0.14010131	          0.13026039	          0.01000673	          0.01000070	          0.01000049	          0.03442927	          0.07470464	          0.05223558	          0.01873052	          0.01000792	          0.01000948	          0.01001140	          0.17470818	          0.03311856	          0.01852462	          0.02517279	          0.01765618	          0.01763735	          0.21835142	          0.29576600	          0.02575883	          0.02132637	          0.12435683	          0.07554195	          0.01000181	          0.01000179	          0.01000160	          0.23242477	          0.31021342	          0.33280224	          0.30018973	          0.32045454	          0.31732702	          0.01000004	          0.01000107	          0.01191111	          0.01000031	          0.01000009	          0.01000036	          0.20028022	          0.20924201	          0.27496909	          0.07602788	          0.14170860	          0.19499973	          0.13515696	          0.07234631	          0.04862242	          0.05492012	          0.01208365	          0.03761824	          0.13681858	          0.14248684	          0.07779416	          0.02925301	          0.01000144	          0.01460212	          0.08498738	          0.15796433	          0.08220882	          0.02704772	          0.01377517	          0.01266334	          0.22669402	          0.06996566	          0.21980607	          0.01208404	          0.03881062	          0.03890863	          0.03521409	          0.01460077	          0.01460075	          0.01298328	          0.01751617	          0.01209931	          0.01361063	          0.53114117	          0.27868068	          0.16637888	          0.47251812	          0.56284959	          0.26309265	          0.05533482	          0.06622404	          0.01000006	          0.02575943	          0.01000003	          0.03649189	
          0.66249612	        -10.38420570	          4.44503634	         -3.82789091	          0.75237857	          0.92092405	          0.00584862	         -8.64481128	         -1.48796498	          9.46345087	        -12.04496399	          5.03866502	         -3.51565755	         36.66902195	         31.27421622	          5.56304757	          2.46586005	         -4.25129540	          8.01264656	        -10.21556250	          0.16815160	          3.04465292	         -3.75287978	          2.22580352	          1.67312032	        -13.51239501	         19.17384145	         77.28463351	        -10.16128343	        -13.50332878	         19.16362640	         16.98094856	          0.16697439	          0.08216530	          0.07997298	          0.15786565	          0.11594613	          0.10780185	          0.01930295	          0.01012404	          0.01001503	          0.02849324	          0.06182466	          0.04323021	          0.10291341	          0.01001489	          0.02660748	          0.05490981	          0.14458634	          0.02741166	          0.01533106	          0.02083293	          0.01461223	          0.01459677	          0.18070483	          0.24477215	          0.02131770	          0.01764956	          0.10291612	          0.06251756	          0.01208380	          0.01208381	          0.01208370	          0.19235173	          0.25672863	          0.29071071	          0.28422415	          0.30525708	          0.29525971	          0.01000006	          0.01000116	          0.01000117	          0.01000037	          0.01000008	          0.01000037	          0.26654411	          0.30588849	          0.37881202	          0.06292261	          0.13328091	          0.23272252	          0.11185420	          0.07659246	          0.05449959	          0.04545123	          0.01000096	          0.03113243	          0.11322933	          0.11792052	          0.06438521	          0.06351188	          0.01000050	          0.01208606	          0.07034573	          0.20840757	          0.12953122	          0.06774706	          0.01140019	          0.01048006	          0.18761273	          0.05790316	          0.24225660	          0.01000064	          0.03211945	          0.03220056	          0.02914296	          0.01208342	          0.01208341	          0.01074480	          0.01449618	          0.01001340	          0.01126410	          0.60598916	          0.28837669	          0.16303659	          0.52869157	          0.60714007	          0.27173314	          0.08383666	          0.07717066	          0.01000002	          0.02131819	          0.01000003	          0.03020022	
